<?xml version="1.0" standalone="no"?>
<!DOCTYPE svg PUBLIC "-//W3C//DTD SVG 20010904//EN"
 "http://www.w3.org/TR/2001/REC-SVG-20010904/DTD/svg10.dtd">
<svg version="1.0" xmlns="http://www.w3.org/2000/svg"
 width="520.000000pt" height="520.000000pt" viewBox="0 0 520.000000 520.000000"
 preserveAspectRatio="xMidYMid meet">
<metadata>
Created by potrace 1.14, written by Peter Selinger 2001-2017
</metadata>
<g transform="translate(0.000000,520.000000) scale(0.100000,-0.100000)"
fill="#000000" stroke="none">
<path d="M1550 2880 l0 -801 78 3 77 3 3 30 c7 80 6 79 71 35 158 -108 299
-123 449 -49 90 44 162 120 211 221 57 121 75 213 68 362 -8 193 -50 309 -147
407 -142 144 -377 143 -574 -2 -22 -16 -42 -29 -45 -29 -4 0 -5 139 -3 310 l3
310 -96 0 -95 0 0 -800z m594 146 c87 -36 146 -130 167 -266 13 -87 6 -233
-15 -303 -34 -113 -118 -207 -210 -237 -83 -27 -223 7 -313 76 l-33 25 0 289
0 290 53 41 c87 70 160 99 245 99 40 0 87 -6 106 -14z"/>
<path d="M3234 3190 c-51 -11 -142 -56 -209 -104 -54 -39 -65 -35 -65 21 0 59
-5 63 -86 63 l-74 0 0 -775 0 -775 90 0 90 0 0 275 c0 151 2 275 5 275 2 0 30
-16 61 -36 109 -69 195 -91 303 -73 93 14 167 53 236 123 117 118 169 262 167
466 -3 336 -143 531 -392 544 -47 3 -104 1 -126 -4z m191 -185 c87 -50 135
-181 135 -362 0 -153 -32 -259 -101 -338 -102 -116 -263 -125 -420 -24 l-59
39 0 289 0 289 53 39 c119 92 190 116 295 102 29 -4 73 -19 97 -34z"/>
</g>
</svg>
