<?xml version="1.0" standalone="no"?>
<!DOCTYPE svg PUBLIC "-//W3C//DTD SVG 20010904//EN"
 "http://www.w3.org/TR/2001/REC-SVG-20010904/DTD/svg10.dtd">
<svg version="1.0" xmlns="http://www.w3.org/2000/svg"
 width="520.000000pt" height="520.000000pt" viewBox="0 0 520.000000 520.000000"
 preserveAspectRatio="xMidYMid meet">
<metadata>
Created by potrace 1.14, written by Peter Selinger 2001-2017
</metadata>
<g transform="translate(0.000000,520.000000) scale(0.100000,-0.100000)"
fill="#000000" stroke="none">
<path d="M1900 2765 l0 -535 55 0 55 0 0 35 c0 19 2 35 4 35 2 0 27 -15 55
-34 99 -67 215 -69 313 -7 54 34 88 76 125 156 26 57 28 68 28 195 -1 152 -17
211 -77 284 -85 104 -252 115 -384 26 l-44 -29 0 204 0 205 -65 0 -65 0 0
-535z m410 86 c24 -12 44 -36 65 -76 28 -54 30 -66 30 -164 0 -96 -3 -111 -29
-164 -32 -66 -86 -112 -144 -122 -44 -7 -119 14 -168 47 l-34 23 0 191 0 192
36 27 c87 67 175 83 244 46z"/>
<path d="M2967 2960 c-27 -10 -64 -31 -83 -45 -40 -30 -44 -29 -53 17 -6 32
-9 33 -59 36 l-52 3 0 -525 0 -526 65 0 65 0 0 185 0 185 46 -30 c97 -61 211
-61 306 -1 54 34 88 76 125 156 26 57 28 68 28 195 -1 152 -17 211 -77 284
-66 80 -201 109 -311 66z m163 -109 c24 -12 44 -36 65 -76 28 -54 30 -66 30
-164 0 -96 -3 -111 -29 -164 -32 -66 -86 -112 -144 -122 -44 -7 -119 14 -168
47 l-34 23 0 191 0 192 33 24 c90 69 178 86 247 49z"/>
</g>
</svg>
